<svg xmlns="http://www.w3.org/2000/svg" viewBox="0 0 100 60" width="200" height="120">
  <!-- Background with subtle gradient -->
  <defs>
    <linearGradient id="background" x1="0%" y1="0%" x2="100%" y2="100%">
      <stop offset="0%" style="stop-color:#f0f5ff;stop-opacity:1" />
      <stop offset="100%" style="stop-color:#e8f4f8;stop-opacity:1" />
    </linearGradient>
    
    <!-- Shadow filter -->
    <filter id="shadow" x="-20%" y="-20%" width="140%" height="140%">
      <feDropShadow dx="1" dy="1" stdDeviation="1" flood-opacity="0.2"/>
    </filter>
  </defs>
  
  <!-- Background rectangle -->
  <rect x="0" y="0" width="100" height="60" fill="url(#background)" rx="5"/>
  
  <!-- Monitor on the left -->
  <g transform="translate(8,15)" filter="url(#shadow)">
    <path d="M5,4H18C19.66,4 21,5.34 21,7V14C21,15.66 19.66,17 18,17H13.5L14,20H15V21H8V20H9L9.5,17H5C3.34,17 2,15.66 2,14V7C2,5.34 3.34,4 5,4M10.5,17L10,20H13L12.5,17H10.5M5,5C3.9,5 3,5.9 3,7V14C3,15.1 3.9,16 5,16H18C19.1,16 20,15.1 20,14V7C20,5.9 19.1,5 18,5H5Z" 
          fill="#2c3e50" transform="scale(1.2,1.2)"/>
  </g>
  
  <!-- Chart in the center -->
  <g transform="translate(38,15)" filter="url(#shadow)">
    <path d="M3,4H4V18L9.57,8.33L15.58,11.8L19.2,5.54L20.06,6.04L15.95,13.17L9.94,9.7L4,20V20H6.3L10.17,13.29L10.67,12.43L11.53,12.93L16.68,15.9L20,10.14V21H3V4M17.04,17.26L11.03,13.79L7.45,20H19V13.88L17.04,17.26Z" 
          fill="#27ae60" transform="scale(1.2,1.2)"/>
  </g>
  
  <!-- Barley on the right -->
  <g transform="translate(68,15)" filter="url(#shadow)">
    <path d="M7.33,18.33C6.5,17.17 6.5,15.83 6.5,14.5C8.17,15.5 9.83,16.5 10.67,17.67L11,18.23V15.95C9.5,15.05 8.08,14.13 7.33,13.08C6.5,11.92 6.5,10.58 6.5,9.25C8.17,10.25 9.83,11.25 10.67,12.42L11,13V10.7C9.5,9.8 8.08,8.88 7.33,7.83C6.5,6.67 6.5,5.33 6.5,4C8.17,5 9.83,6 10.67,7.17C10.77,7.31 10.86,7.46 10.94,7.62C10.77,7 10.66,6.42 10.65,5.82C10.64,4.31 11.3,2.76 11.96,1.21C12.65,2.69 13.34,4.18 13.35,5.69C13.36,6.32 13.25,6.96 13.07,7.59C13.15,7.45 13.23,7.31 13.33,7.17C14.17,6 15.83,5 17.5,4C17.5,5.33 17.5,6.67 16.67,7.83C15.92,8.88 14.5,9.8 13,10.7V13L13.33,12.42C14.17,11.25 15.83,10.25 17.5,9.25C17.5,10.58 17.5,11.92 16.67,13.08C15.92,14.13 14.5,15.05 13,15.95V18.23L13.33,17.67C14.17,16.5 15.83,15.5 17.5,14.5C17.5,15.83 17.5,17.17 16.67,18.33C15.92,19.38 14.5,20.3 13,21.2V23H11V21.2C9.5,20.3 8.08,19.38 7.33,18.33Z" 
          fill="#f39c12" transform="scale(1.2,1.2)"/>
  </g>
  
  <!-- Connecting lines -->
  <line x1="30" y1="28" x2="38" y2="28" stroke="#95a5a6" stroke-width="0.5" opacity="0.6"/>
  <line x1="62" y1="28" x2="68" y2="28" stroke="#95a5a6" stroke-width="0.5" opacity="0.6"/>
  
  <!-- Optional title -->
  <text x="50" y="7" text-anchor="middle" font-family="Arial, sans-serif" font-size="8" fill="#34495e">Technology · Analytics · Agriculture</text>
</svg>